<?xml version="1.0" encoding="UTF-8"?>
<svg xmlns="http://www.w3.org/2000/svg" xmlns:xlink="http://www.w3.org/1999/xlink" viewBox="0 0 16 16" width="16px" height="16px">
<g id="surface26260148">
<path style=" stroke:none;fill-rule:nonzero;fill:rgb(100%,100%,100%);fill-opacity:1;" d="M 8 1.601562 C 6.417969 1.601562 4.960938 2.179688 3.84375 3.132812 C 3.691406 3.253906 3.617188 3.449219 3.652344 3.640625 C 3.683594 3.835938 3.820312 3.992188 4.003906 4.054688 C 4.1875 4.117188 4.394531 4.074219 4.535156 3.945312 C 5.46875 3.148438 6.675781 2.667969 8 2.667969 C 10.773438 2.667969 13.039062 4.765625 13.308594 7.464844 L 11.734375 7.464844 L 13.867188 10.667969 L 16 7.464844 L 14.371094 7.464844 C 14.101562 4.1875 11.347656 1.601562 8 1.601562 Z M 2.132812 5.332031 L 0 8.535156 L 1.628906 8.535156 C 1.898438 11.8125 4.652344 14.398438 8 14.398438 C 9.582031 14.398438 11.039062 13.820312 12.15625 12.867188 C 12.308594 12.746094 12.382812 12.550781 12.347656 12.359375 C 12.316406 12.164062 12.179688 12.007812 11.996094 11.945312 C 11.8125 11.882812 11.605469 11.925781 11.464844 12.054688 C 10.53125 12.851562 9.324219 13.332031 8 13.332031 C 5.226562 13.332031 2.960938 11.234375 2.691406 8.535156 L 4.265625 8.535156 Z M 2.132812 5.332031 "/>
</g>
</svg>
